<?xml version="1.0" encoding="UTF-8"?>
<svg version="1.1" xmlns="http://www.w3.org/2000/svg" width="800" height="800">
<path d="M0 0 C264 0 528 0 800 0 C800 264 800 528 800 800 C536 800 272 800 0 800 C0 536 0 272 0 0 Z " fill="#FDFDFD" transform="translate(0,0)"/>
<path d="M0 0 C1.14311646 0.09015381 1.14311646 0.09015381 2.30932617 0.18212891 C3.82723454 0.30425761 5.34461305 0.43318675 6.86132812 0.56933594 C8.61890902 0.72227689 10.37967295 0.83793737 12.140625 0.9453125 C13.00171875 1.00460937 13.8628125 1.06390625 14.75 1.125 C15.47832031 1.17398437 16.20664063 1.22296875 16.95703125 1.2734375 C19.72868812 1.94038452 20.95024246 2.66358616 22.9375 4.75 C23.86416598 7.52713785 24.58180273 10.09519108 25.1875 12.9375 C25.36023438 13.68708984 25.53296875 14.43667969 25.7109375 15.20898438 C26.13373424 17.05284795 26.5374986 18.90105737 26.9375 20.75 C30.63563159 21.87406773 34.24620115 22.01153653 38.0949707 22.19897461 C38.80963501 22.23492233 39.52429932 22.27087006 40.26062012 22.3079071 C41.81282853 22.38548584 43.36512896 22.46123999 44.91750526 22.53538322 C47.39850952 22.65402842 49.87921698 22.77773256 52.35990906 22.90272522 C58.53869513 23.21303716 64.71787932 23.51508821 70.89709473 23.81671143 C76.92773122 24.11136382 82.95815806 24.40985687 88.98828125 24.71484375 C89.82421059 24.75704796 90.66013992 24.79925217 91.52140045 24.84273529 C103.20877355 25.43879583 114.85856093 26.21489786 126.50805664 27.34838867 C131.73216425 27.85061696 136.94911614 28.06702688 142.1953125 28.2109375 C145.78952062 28.91749123 147.47232144 30.05004253 149.9375 32.75 C150.28524793 36.92769409 149.69535947 40.19401683 148.328125 44.12890625 C147.9875708 45.12688232 147.6470166 46.1248584 147.29614258 47.15307617 C146.7473645 48.71699097 146.7473645 48.71699097 146.1875 50.3125 C145.44505439 52.46560847 144.70415524 54.61925086 143.96484375 56.7734375 C143.61019043 57.80436523 143.25553711 58.83529297 142.89013672 59.89746094 C141.41851059 64.3040421 140.18285779 68.76393753 139.01953125 73.26171875 C137.55223685 76.63596616 135.75364427 78.38191682 132.9375 80.75 C129.67382813 81.5612793 129.67382813 81.5612793 125.96875 81.82421875 C125.30032074 81.87830902 124.63189148 81.93239929 123.94320679 81.98812866 C121.77564638 82.15894602 119.60729341 82.29821647 117.4375 82.4375 C115.93227669 82.55097043 114.4272287 82.66679001 112.92236328 82.78491211 C109.94529209 83.01654786 106.96776595 83.23786095 103.98925781 83.45019531 C98.92144475 83.81687325 93.86784234 84.30436765 88.8125 84.8125 C85.52117446 85.12860672 82.22933076 85.43920215 78.9375 85.75 C77.97070312 85.84168457 77.00390625 85.93336914 76.0078125 86.02783203 C72.94320145 86.31587038 69.87797296 86.5962982 66.8125 86.875 C65.42587158 87.00660522 65.42587158 87.00660522 64.01123047 87.14086914 C57.63861836 87.71052985 51.33393752 87.84721968 44.9375 87.75 C44.69515625 86.80640625 44.4528125 85.8628125 44.203125 84.890625 C42.41272183 77.998341 40.52595162 71.18553596 38.20214844 64.45019531 C36.54196415 59.59271402 34.92166211 54.72227535 33.30078125 49.8515625 C32.97678345 48.87872314 32.65278564 47.90588379 32.31896973 46.90356445 C31.52488957 44.51912838 30.73107342 42.13460476 29.9375 39.75 C30.14421326 40.65082809 30.14421326 40.65082809 30.35510254 41.56985474 C31.79027041 47.82996466 33.21634926 54.09209571 34.63720703 60.35546875 C35.1684134 62.69161 35.70192219 65.02722896 36.23779297 67.36230469 C37.00836784 70.72195394 37.77059844 74.08340452 38.53125 77.4453125 C38.77186157 78.48615997 39.01247314 79.52700745 39.26037598 80.59939575 C40.33731532 85.39445489 41.26217004 89.79878187 40.9375 94.75 C41.85289551 94.62955322 42.76829102 94.50910645 43.71142578 94.38500977 C57.37232974 92.65249231 71.08172681 91.68296219 84.8125 90.6875 C88.3656436 90.42689419 91.91870638 90.16522951 95.47171021 89.90272522 C97.66324371 89.7411222 99.85486806 89.58074419 102.04660034 89.42185974 C107.90284007 88.9934338 113.74931054 88.50838113 119.59434509 87.94656372 C122.61043876 87.69354819 125.59946781 87.6519055 128.625 87.6875 C130.14673828 87.70103516 130.14673828 87.70103516 131.69921875 87.71484375 C132.43785156 87.72644531 133.17648438 87.73804688 133.9375 87.75 C133.9375 91.05 133.9375 94.35 133.9375 97.75 C132.72320312 97.92015625 131.50890625 98.0903125 130.2578125 98.265625 C120.41146076 99.65425062 110.57613088 101.09968815 100.75 102.625 C90.92102798 104.14630187 81.08853838 105.64247677 71.25033569 107.10284424 C69.77069859 107.32288656 68.29122122 107.54400612 66.81192017 107.76629639 C59.26270648 108.8996748 51.75391433 109.97131724 44.12695312 110.42333984 C39.71506952 111.08158028 37.02895066 113.65854934 33.9375 116.75 C31.03782243 117.05675232 28.21966822 117.26173371 25.3125 117.375 C24.51070312 117.41367187 23.70890625 117.45234375 22.8828125 117.4921875 C20.90142444 117.58653931 18.91949355 117.66936215 16.9375 117.75 C17.55816727 114.24033037 18.47080332 111.06272739 19.75 107.73828125 C20.10320312 106.81595703 20.45640625 105.89363281 20.8203125 104.94335938 C21.18898437 103.99267578 21.55765625 103.04199219 21.9375 102.0625 C22.30617187 101.10021484 22.67484375 100.13792969 23.0546875 99.14648438 C25.77113412 92.08273176 25.77113412 92.08273176 26.9375 89.75 C27.28049411 84.36970024 26.32030996 79.84295966 24.75 74.75 C22.29966167 66.42609554 20.39628692 58.03802442 18.63793945 49.54296875 C17.65045339 44.81945953 16.52883339 40.3140796 14.9375 35.75 C14.57227908 34.13186843 14.23706559 32.50656261 13.9375 30.875 C13.1189418 26.44601545 12.04918264 22.11335435 10.9375 17.75 C9.69613281 17.67523438 8.45476562 17.60046875 7.17578125 17.5234375 C5.5337376 17.39207401 3.89181583 17.25918078 2.25 17.125 C1.43337891 17.07988281 0.61675781 17.03476562 -0.22460938 16.98828125 C-4.48572329 16.60874884 -7.22835355 16.18153155 -10.14453125 12.89453125 C-12.0625 9.75 -12.0625 9.75 -12.0625 6.0625 C-9.96613115 -0.88172183 -6.6674296 -0.617848 0 0 Z " fill="#04489F" transform="translate(91.0625,310.25)"/>
<path d="M0 0 C4.77499017 0.01351273 9.5498884 0.00814937 14.32488918 0.00311565 C39.38211626 -0.01659036 64.29483432 0.35889818 89.29292297 2.11514282 C94.48314362 2.43264879 99.67295118 2.54084486 104.87121582 2.6350708 C122.61119814 3.13791208 140.26681576 5.45036237 157.89326477 7.3931427 C165.64913039 8.23817412 173.41330174 8.95408945 181.19110107 9.56608582 C187.12945688 10.06613647 192.86484094 11.03999953 198.68371582 12.3225708 C198.68371582 12.6525708 198.68371582 12.9825708 198.68371582 13.3225708 C190.61733059 13.59944901 182.73641211 12.65247474 174.74050903 11.72729492 C149.35815982 8.80761602 123.99356281 7.15087955 98.47399902 6.01934814 C97.16575668 5.96066811 97.16575668 5.96066811 95.83108521 5.90080261 C94.21549958 5.82873523 92.59984364 5.75821478 90.98410034 5.68977356 C86.34996247 5.48318375 81.73557282 5.17103945 77.11120605 4.80401611 C69.14951097 4.22531269 61.21526826 4.15973346 53.23840332 4.15460205 C51.67425486 4.15056193 50.11010691 4.14632525 48.54595947 4.14190674 C43.55019997 4.1304947 38.55448417 4.13198283 33.55871582 4.1350708 C32.7075695 4.13519039 31.85642319 4.13530998 30.97948456 4.1354332 C3.83386838 4.14026911 -23.22317081 4.49139369 -50.31628418 6.3225708 C-51.97090297 6.43086166 -53.62552541 6.53909666 -55.28015137 6.64727783 C-85.50025068 8.65529952 -115.46797676 12.13561692 -145.31628418 17.3225708 C-146.42342773 17.51464111 -147.53057129 17.70671143 -148.67126465 17.90460205 C-175.30506694 22.57389582 -202.01956414 28.14399052 -227.12902832 38.44537354 C-232.38028372 40.55138544 -237.83960459 41.94003202 -243.31628418 43.3225708 C-244.03541992 43.50884033 -244.75455566 43.69510986 -245.4954834 43.88702393 C-263.46583272 48.41704149 -283.14906167 49.59563053 -301.31628418 45.3225708 C-302.18769043 45.12792236 -303.05909668 44.93327393 -303.95690918 44.73272705 C-314.82170473 41.91654538 -323.88748101 35.75147863 -330.25378418 26.5100708 C-332.19545017 20.68507283 -332.23977022 14.88699278 -329.81628418 9.1975708 C-329.32128418 8.2488208 -328.82628418 7.3000708 -328.31628418 6.3225708 C-327.98628418 6.3225708 -327.65628418 6.3225708 -327.31628418 6.3225708 C-326.97597168 8.1169458 -326.97597168 8.1169458 -326.62878418 9.9475708 C-325.51125821 14.25042589 -323.86129367 17.54605987 -320.31628418 20.3225708 C-310.90631686 25.24620258 -301.4838205 26.62994461 -291.01940918 26.5881958 C-289.9493866 26.59010925 -288.87936401 26.59202271 -287.7769165 26.59399414 C-285.52115645 26.59534989 -283.26538844 26.59169626 -281.00964355 26.58331299 C-277.59084138 26.57264741 -274.17256971 26.58320755 -270.75378418 26.5960083 C-268.55065804 26.59468578 -266.34753222 26.59212146 -264.14440918 26.5881958 C-263.13775208 26.59224426 -262.13109497 26.59629272 -261.09393311 26.60046387 C-253.98989177 26.5544968 -247.29434996 25.59501215 -240.31628418 24.3225708 C-238.29318915 24.06162928 -236.26754942 23.81798057 -234.23815918 23.6116333 C-223.81236871 22.49169327 -213.85087188 21.17382113 -203.72644043 18.42022705 C-138.33219614 1.37228296 -67.03393569 -0.25735233 0 0 Z " fill="#0B479A" transform="translate(430.3162841796875,423.67742919921875)"/>
<path d="M0 0 C4.37640922 0.83000864 5.86696515 2.07746417 8.53515625 5.53125 C10.44326442 9.30643176 10.0084487 12.53347241 9.625 16.6875 C14.575 17.6775 14.575 17.6775 19.625 18.6875 C19.625 21.9875 19.625 25.2875 19.625 28.6875 C21.2028125 28.56375 21.2028125 28.56375 22.8125 28.4375 C26.625 28.6875 26.625 28.6875 29.5625 30 C32.79134236 34.20727944 32.02215546 38.56860743 31.625 43.6875 C32.22828125 43.83058594 32.8315625 43.97367187 33.453125 44.12109375 C35.9442196 44.77074972 38.25081198 45.69825499 40.625 46.6875 C41.29462437 53.21633761 38.45437436 58.02875129 35.625 63.6875 C17.56865054 63.33615628 -0.42282119 62.53183912 -18.4375 61.25 C-19.32129333 61.18855804 -20.20508667 61.12711609 -21.11566162 61.06381226 C-31.93381932 60.30509544 -42.64504785 59.27836338 -53.375 57.6875 C-53.68743652 56.5835791 -53.99987305 55.4796582 -54.32177734 54.34228516 C-55.13148414 51.53252373 -56.01081694 48.81023071 -57 46.0625 C-58.07634916 42.83345252 -58.97992169 40.11538959 -58.375 36.6875 C-57.3125 34.9375 -57.3125 34.9375 -55.375 33.6875 C-51.6875 33 -51.6875 33 -48.375 32.6875 C-48.42140625 32.01203125 -48.4678125 31.3365625 -48.515625 30.640625 C-48.80561081 23.47383279 -48.80561081 23.47383279 -46.9375 20.0625 C-43.0953523 18.00085977 -39.6313501 17.78624437 -35.375 18.6875 C-32.3125 21.0625 -32.3125 21.0625 -30.375 23.6875 C-30.375 24.3475 -30.375 25.0075 -30.375 25.6875 C-29.055 25.6875 -27.735 25.6875 -26.375 25.6875 C-26.08496094 24.56601562 -26.08496094 24.56601562 -25.7890625 23.421875 C-25.52867187 22.43703125 -25.26828125 21.4521875 -25 20.4375 C-24.74476563 19.46296875 -24.48953125 18.4884375 -24.2265625 17.484375 C-23.375 14.6875 -23.375 14.6875 -21.375 10.6875 C-17.745 10.6875 -14.115 10.6875 -10.375 10.6875 C-9.75625 9.32625 -9.75625 9.32625 -9.125 7.9375 C-6.64440819 3.33068663 -5.2618421 1.07185672 0 0 Z " fill="#97BD23" transform="translate(189.375,268.3125)"/>
<path d="M0 0 C2.22264333 0.00099144 4.44527985 -0.00001447 6.66792297 -0.0012207 C29.05451749 -0.00574283 51.36256243 0.41965065 73.68928528 2.18847656 C73.68928528 2.51847656 73.68928528 2.84847656 73.68928528 3.18847656 C72.93667419 3.1943428 72.18406311 3.20020905 71.40864563 3.20625305 C15.30569581 3.66129956 -40.62838036 4.62130103 -96.31071472 12.18847656 C-97.56797363 12.35766602 -97.56797363 12.35766602 -98.85063171 12.53027344 C-136.43088424 17.60844086 -172.98041828 25.38860281 -208.99821472 37.31347656 C-209.63919098 37.52566833 -210.28016724 37.73786011 -210.94056702 37.95648193 C-219.32645873 40.74372252 -227.67073601 43.61288247 -235.71647644 47.28710938 C-244.8312683 50.45404063 -256.22075713 47.75493278 -265.49821472 46.31347656 C-266.710578 46.13945312 -267.92294128 45.96542969 -269.17204285 45.78613281 C-278.05346283 44.44572846 -278.05346283 44.44572846 -280.31071472 42.18847656 C-278.62321472 41.62597656 -276.93571472 41.06347656 -275.24821472 40.50097656 C-274.15476746 40.13617188 -273.06132019 39.77136719 -271.93473816 39.39550781 C-269.48043651 38.57806862 -267.02533241 37.76303549 -264.56950378 36.95019531 C-258.87447676 35.06339806 -253.18874599 33.16296502 -247.54508972 31.12597656 C-195.04682734 12.40671931 -137.56106636 6.41737496 -82.31071472 2.56347656 C-80.99102188 2.46968216 -80.99102188 2.46968216 -79.64466858 2.37399292 C-53.11914457 0.50844999 -26.58185525 -0.01498551 0 0 Z " fill="#E1510C" transform="translate(464.3107147216797,430.8115234375)"/>
<path d="M0 0 C1.010625 0.639375 2.02125 1.27875 3.0625 1.9375 C5.86132563 3.90263289 7.27294231 5.10982182 9 8 C9.3984375 10.83984375 9.3984375 10.83984375 9.375 13.9375 C9.38660156 15.46697266 9.38660156 15.46697266 9.3984375 17.02734375 C8.69079082 22.306943 5.80042416 25.46167406 2 29 C4.64 29 7.28 29 10 29 C6.81587924 31.12274717 5.37768364 31.38243961 1.66015625 31.78125 C0.59603516 31.90113281 -0.46808594 32.02101563 -1.56445312 32.14453125 C-2.67755859 32.26183594 -3.79066406 32.37914062 -4.9375 32.5 C-7.11359356 32.73672984 -9.28937923 32.97630758 -11.46484375 33.21875 C-12.430271 33.32123047 -13.39569824 33.42371094 -14.39038086 33.52929688 C-16.48501846 33.80244272 -18.57700576 34.10596603 -20.65463257 34.48751831 C-27.88467656 35.81219813 -34.76737917 36.26876829 -42.109375 36.1953125 C-43.74860931 36.19106766 -43.74860931 36.19106766 -45.42095947 36.18673706 C-48.864091 36.1756656 -52.30694894 36.15058633 -55.75 36.125 C-58.10416287 36.11495332 -60.45832988 36.10583045 -62.8125 36.09765625 C-68.54175783 36.0757692 -74.27085936 36.04242454 -80 36 C-80 35.67 -80 35.34 -80 35 C-77.69 35 -75.38 35 -73 35 C-74.11375 33.948125 -74.11375 33.948125 -75.25 32.875 C-78.9280993 29.02971437 -81.72502718 26.08193705 -82.4375 20.6875 C-81.82695323 15.54146292 -81.0794856 10.0794856 -77.29296875 6.29296875 C-74.32417325 4.618912 -71.96050973 4.39374082 -68.5625 4.0625 C-67.12861919 3.90890661 -65.69504825 3.75240571 -64.26171875 3.59375 C-63.44364746 3.50480469 -62.62557617 3.41585938 -61.78271484 3.32421875 C-56.1343588 2.66611936 -50.50651231 1.8498111 -44.875 1.0625 C-42.36328278 0.71613475 -39.85156403 0.36978056 -37.33984375 0.0234375 C-32.68373431 -0.62193965 -28.03038807 -1.2830515 -23.37890625 -1.9609375 C-21.86611084 -2.17762085 -21.86611084 -2.17762085 -20.32275391 -2.39868164 C-18.44781401 -2.66759543 -16.57371886 -2.94249097 -14.70068359 -3.22436523 C-13.87004395 -3.34239502 -13.0394043 -3.4604248 -12.18359375 -3.58203125 C-11.46743896 -3.68749268 -10.75128418 -3.7929541 -10.01342773 -3.90161133 C-5.68696227 -4.11302949 -3.30486066 -2.62444817 0 0 Z " fill="#F9F9F8" transform="translate(208,415)"/>
<path d="M0 0 C-0.61361157 6.42031475 -1.65844405 12.58403552 -3.0625 18.875 C-3.43116323 20.5384493 -3.79716727 22.20249079 -4.16015625 23.8671875 C-4.40197632 24.95169189 -4.40197632 24.95169189 -4.64868164 26.05810547 C-5.08901265 28.16310994 -5.08901265 28.16310994 -5 31 C-4.27296875 30.14019531 -3.5459375 29.28039062 -2.796875 28.39453125 C2.55759436 22.08881495 7.96756174 15.84417624 13.5625 9.75 C14.06233398 9.20190674 14.56216797 8.65381348 15.07714844 8.08911133 C20.62519185 2.09202196 20.62519185 2.09202196 24.91796875 1.8046875 C25.99691406 1.82789063 27.07585937 1.85109375 28.1875 1.875 C29.81751953 1.90207031 29.81751953 1.90207031 31.48046875 1.9296875 C32.72763672 1.96449219 32.72763672 1.96449219 34 2 C30.36611229 7.14800759 26.42515462 11.78624439 22.125 16.375 C16.5879765 22.31360618 16.5879765 22.31360618 11.1875 28.375 C10.54167969 29.10460937 9.89585937 29.83421875 9.23046875 30.5859375 C7.02438225 34.91406911 8.5400037 38.52003344 9.90649414 42.91650391 C11.04249561 46.33494435 12.2312024 49.73075417 13.4375 53.125 C14.04948242 54.87490234 14.04948242 54.87490234 14.67382812 56.66015625 C15.76876575 59.77885298 16.86711112 62.89488728 18 66 C18.32234619 66.92151855 18.64469238 67.84303711 18.97680664 68.79248047 C19.83319374 71.24130005 19.83319374 71.24130005 22.5 72.25 C23.7375 72.62125 23.7375 72.62125 25 73 C25.99 73.495 25.99 73.495 27 74 C26 77 26 77 24 78 C21.75555063 78.20142494 19.5026225 78.31321921 17.25 78.375 C16.03828125 78.42398438 14.8265625 78.47296875 13.578125 78.5234375 C9.22593025 77.88676272 6.71100796 76.3713417 4 73 C2.63489476 70.48618294 1.77336055 67.91729215 0.9375 65.1875 C0.69563965 64.45281494 0.4537793 63.71812988 0.20458984 62.96118164 C-0.55112725 60.64689059 -1.27747795 58.32484658 -2 56 C-2.4953696 54.44247783 -2.9914527 52.8851824 -3.48828125 51.328125 C-4.68334347 47.55933595 -5.84943833 43.78259876 -7 40 C-7.27585937 41.25683594 -7.55171875 42.51367188 -7.8359375 43.80859375 C-9.04293833 49.24009747 -10.32967183 54.65149251 -11.625 60.0625 C-11.96917969 61.50399414 -11.96917969 61.50399414 -12.3203125 62.97460938 C-12.87958324 65.31655561 -13.43970263 67.65829916 -14 70 C-19.28 70 -24.56 70 -30 70 C-29.34289081 65.4002357 -28.63727702 60.93003013 -27.73046875 56.38671875 C-27.359823 54.52720581 -27.359823 54.52720581 -26.98168945 52.63012695 C-26.71721062 51.31586744 -26.45247602 50.00165937 -26.1875 48.6875 C-26.05338715 48.02003754 -25.91927429 47.35257507 -25.78109741 46.66488647 C-23.65248844 36.07961608 -21.47126842 25.51127742 -19 15 C-18.74605469 13.87078125 -18.49210938 12.7415625 -18.23046875 11.578125 C-17.86888672 10.08539063 -17.86888672 10.08539063 -17.5 8.5625 C-17.3040625 7.73878906 -17.108125 6.91507812 -16.90625 6.06640625 C-15.75273197 3.43618626 -14.43823293 2.47024532 -12 1 C-7.96735018 0.0356707 -4.13510279 -0.09845483 0 0 Z " fill="#EC5F1B" transform="translate(272,341)"/>
<path d="M0 0 C1.46953125 0.01450195 1.46953125 0.01450195 2.96875 0.02929688 C7.06035853 0.09357761 10.79772161 0.17961235 14.75 1.3125 C14.0988336 7.64657313 12.76838656 13.63603064 11.25 19.8125 C9.05172995 29.03947999 7.89947484 37.8276418 7.75 47.3125 C3.46 47.3125 -0.83 47.3125 -5.25 47.3125 C-5.58 44.6725 -5.91 42.0325 -6.25 39.3125 C-6.745 40.055 -7.24 40.7975 -7.75 41.5625 C-11.77012884 45.98464173 -16.41430037 48.46510362 -22.4375 48.875 C-27.0551401 48.19370884 -28.44528417 46.96712972 -31.25 43.3125 C-33.91779066 35.30912803 -33.34175153 24.22837246 -29.70703125 16.625 C-22.05049439 4.47307019 -14.18474627 -0.4266802 0 0 Z " fill="#EA5D1A" transform="translate(322.25,363.6875)"/>
<path d="M0 0 C1.39895508 0.00773437 1.39895508 0.00773437 2.82617188 0.015625 C7.17934748 0.0652692 11.17462535 0.30385324 15.4375 1.25 C14.9042867 8.54288559 13.60815129 15.45254666 11.9375 22.5625 C10.04705092 30.87659743 8.75366407 38.71357012 8.4375 47.25 C4.1475 47.25 -0.1425 47.25 -4.5625 47.25 C-4.8925 44.94 -5.2225 42.63 -5.5625 40.25 C-6.03300781 40.65992188 -6.50351562 41.06984375 -6.98828125 41.4921875 C-7.61089844 42.03101563 -8.23351562 42.56984375 -8.875 43.125 C-9.48988281 43.65867187 -10.10476563 44.19234375 -10.73828125 44.7421875 C-14.71479712 48.02898649 -17.22896846 48.85566528 -22.26953125 48.7734375 C-25.82481265 47.96184004 -27.33340595 45.90354962 -29.46875 43.07421875 C-33.01273221 37.1633627 -32.08111781 29.18636276 -30.9375 22.625 C-28.54468731 13.27127765 -21.88420328 6.67863937 -14.00390625 1.6015625 C-9.26559062 -0.25934239 -5.03929869 -0.1119067 0 0 Z " fill="#08489A" transform="translate(606.5625,363.75)"/>
<path d="M0 0 C4.29 0 8.58 0 13 0 C12.51987563 6.24161676 11.8533264 12.24499476 10.54296875 18.36328125 C9.54389895 23.21487918 8.78968333 28.11068405 8 33 C8.474375 32.29875 8.94875 31.5975 9.4375 30.875 C13.49676296 26.32070497 18.14339499 22.61613049 24.1875 21.3125 C28.28631631 22.31443288 30.22644074 23.83021799 33 27 C33.38244172 32.50534826 32.71505467 37.27373961 31.50390625 42.67578125 C31.35090561 43.36762009 31.19790497 44.05945892 31.04026794 44.77226257 C30.55553829 46.95418587 30.05904943 49.13324001 29.5625 51.3125 C29.23298575 52.79215351 28.90420343 54.27197021 28.57617188 55.75195312 C26.20038271 66.39885188 26.20038271 66.39885188 25 70 C20.71 70 16.42 70 12 70 C12.40883619 62.64094853 13.60540492 55.91676844 15.54003906 48.8359375 C16.77958448 44.22992572 17.49325096 39.7454936 18 35 C12.36674233 36.36563822 9.04213134 40.30248454 6 45 C4.25792463 49.24181527 3.10014406 53.55358442 2 58 C1.7009375 59.15628906 1.401875 60.31257813 1.09375 61.50390625 C0.3729923 64.33021073 -0.31672314 67.16440105 -1 70 C-5.29 70 -9.58 70 -14 70 C-13.31648353 61.90864287 -11.7134109 54.02671922 -10.09863281 46.08154297 C-9.62907617 43.77006567 -9.165607 41.45743327 -8.703125 39.14453125 C-6.9446923 30.39420591 -5.05704173 21.68580443 -3 13 C-2.68251589 11.62915543 -2.3659202 10.25810434 -2.05078125 8.88671875 C-1.3671875 5.92447917 -0.68359375 2.96223958 0 0 Z " fill="#EC6222" transform="translate(427,341)"/>
<path d="M0 0 C4.62 0 9.24 0 14 0 C13.27662992 7.93669428 11.30284911 15.5841008 9.4375 23.3125 C8.94265589 25.36724686 8.44912316 27.42226442 7.95973206 29.47831726 C7.51877509 31.33051066 7.07287541 33.18152528 6.62670898 35.0324707 C5.89668444 37.98371206 5.89668444 37.98371206 6 41 C7.35491884 39.50067938 8.70888678 38.00049946 10.0625 36.5 C10.89523437 35.59507812 11.72796875 34.69015625 12.5859375 33.7578125 C14.9810296 31.13408131 14.9810296 31.13408131 16.6640625 28.5546875 C18.32620368 26.17654705 19.56727501 24.6013981 22 23 C26.74171144 22.34200921 31.24698129 22.52535735 36 23 C36 23.66 36 24.32 36 25 C35.34 25 34.68 25 34 25 C33.73574219 25.59296875 33.47148438 26.1859375 33.19921875 26.796875 C31.95629575 29.08029054 30.69598354 30.47426723 28.8125 32.25 C24.93071333 35.92269746 21.488888 39.95940072 18 44 C18.30292969 44.74685059 18.60585938 45.49370117 18.91796875 46.26318359 C20.28221835 49.63235539 21.64117222 53.00363809 23 56.375 C23.47695313 57.550625 23.95390625 58.72625 24.4453125 59.9375 C25.12207031 61.61972656 25.12207031 61.61972656 25.8125 63.3359375 C26.23144531 64.37282715 26.65039062 65.4097168 27.08203125 66.47802734 C28 69 28 69 28 71 C25.73020335 71.10794277 23.45894804 71.18556176 21.1875 71.25 C19.92292969 71.29640625 18.65835938 71.3428125 17.35546875 71.390625 C14 71 14 71 12.25 69.5625 C10.38670265 65.74274043 9.09300032 61.79701336 7.8125 57.75 C7.53986328 56.90953125 7.26722656 56.0690625 6.98632812 55.203125 C6.31738529 53.1376173 5.65776743 51.06909366 5 49 C3.52804635 51.71009516 2.65485065 54.07089611 2.1484375 57.109375 C2.01953125 57.86347656 1.890625 58.61757813 1.7578125 59.39453125 C1.63148438 60.17183594 1.50515625 60.94914062 1.375 61.75 C1.17390625 62.93916016 1.17390625 62.93916016 0.96875 64.15234375 C0.64012702 66.10060858 0.31929295 68.05018439 0 70 C-4.62 70 -9.24 70 -14 70 C-13.53339188 65.24059715 -12.74121064 60.71435169 -11.625 56.0625 C-10.44429581 51.10694828 -9.46903714 46.1470507 -8.625 41.125 C-6.79721405 30.33718464 -4.38117882 19.67657824 -2 9 C-1.61578081 7.27085657 -1.23165838 5.54169164 -0.84765625 3.8125 C-0.56792969 2.554375 -0.28820312 1.29625 0 0 Z " fill="#ED6222" transform="translate(492,341)"/>
<path d="M0 0 C0.886875 0.825 1.77375 1.65 2.6875 2.5 C2.13199305 6.09905908 0.93862752 7.49909799 -1.875 9.75 C-2.51566406 10.27078125 -3.15632812 10.7915625 -3.81640625 11.328125 C-4.31011719 11.71484375 -4.80382812 12.1015625 -5.3125 12.5 C-5.9725 11.84 -6.6325 11.18 -7.3125 10.5 C-11.04619459 8.01087027 -13.99799083 7.68996369 -18.3125 8.5 C-26.00134154 12.10904807 -30.79898359 19.49496139 -33.6875 27.25 C-36.55586589 35.78027072 -38.52566108 45.76801584 -34.4375 54.1875 C-32.69794276 57.52034487 -32.69794276 57.52034487 -30.3125 58.5 C-23.82649214 59.19492941 -20.12678104 57.74877504 -14.51171875 54.49609375 C-12.3125 53.5 -12.3125 53.5 -9.3125 54.5 C-7.80974659 57.50550681 -7.72484995 59.16998307 -8.3125 62.5 C-10.72979791 64.65327265 -13.40594683 66.09998486 -16.3125 67.5 C-17.0446875 67.86738281 -17.776875 68.23476563 -18.53125 68.61328125 C-25.54863214 70.8505646 -35.14765656 70.89790862 -42.12890625 68.5546875 C-47.24755148 65.46601733 -50.96347413 60.98958488 -53.3125 55.5 C-54.68552398 44.63464975 -54.63080136 32.24747494 -49.3125 22.5 C-48.86519531 21.63375 -48.41789063 20.7675 -47.95703125 19.875 C-42.48870113 10.02320955 -34.81519249 2.67900309 -24.12890625 -1.31640625 C-16.57672014 -3.29798903 -6.62883988 -4.7464107 0 0 Z " fill="#08499D" transform="translate(580.3125,342.5)"/>
<path d="M0 0 C4.62 0 9.24 0 14 0 C12.34975129 12.15183139 9.68213843 24.04072789 7 36 C12.65091595 35.03520947 15.23682764 32.15976029 18.46972656 27.71875 C21.169507 22.92220327 21.98900856 17.88109505 22.875 12.5 C23.26574362 10.3432982 23.6588388 8.18702064 24.0546875 6.03125 C24.21437012 5.08830078 24.37405273 4.14535156 24.53857422 3.17382812 C25 1 25 1 26 0 C28.35313555 -0.07271741 30.70833668 -0.08370868 33.0625 -0.0625 C34.35285156 -0.05347656 35.64320313 -0.04445313 36.97265625 -0.03515625 C37.97167969 -0.02355469 38.97070312 -0.01195312 40 0 C39.39751849 2.89619284 38.79312373 5.79196383 38.1875 8.6875 C37.91728027 9.9856665 37.91728027 9.9856665 37.64160156 11.31005859 C36.60070175 16.27413742 35.4734235 21.20203749 34.25 26.125 C32.8231984 32.20441551 31.98354231 37.95062693 34 44 C30.58320896 47.14344775 27.61989605 47.91750186 23 48 C20.5625 46.375 20.5625 46.375 19 44 C18.90234375 41.3515625 18.90234375 41.3515625 19 39 C18.24074219 39.56589844 17.48148437 40.13179688 16.69921875 40.71484375 C15.20841797 41.81505859 15.20841797 41.81505859 13.6875 42.9375 C12.70136719 43.66839844 11.71523438 44.39929688 10.69921875 45.15234375 C6.41835405 48.08266069 3.11719739 48.35910157 -2 48 C-5.1850357 46.23984869 -5.83296972 45.50109084 -7 42 C-7.27967112 36.40657756 -6.59282219 32.39789741 -5 27 C-4.66382824 24.98296947 -4.35408698 22.96145668 -4.0625 20.9375 C-3.03482613 13.86710381 -1.55026226 6.97618017 0 0 Z " fill="#EC611E" transform="translate(343,364)"/>
<path d="M0 0 C4.37640922 0.83000864 5.86696515 2.07746417 8.53515625 5.53125 C10.44326442 9.30643176 10.0084487 12.53347241 9.625 16.6875 C14.575 17.6775 14.575 17.6775 19.625 18.6875 C19.92016738 26.21426821 18.50186484 29.99782436 13.625 35.6875 C9.8186543 35.01579194 6.27293184 33.96003436 2.625 32.6875 C2.36976563 33.53570312 2.11453125 34.38390625 1.8515625 35.2578125 C0.54005516 38.92502093 -1.12143123 42.15324557 -3 45.5625 C-3.63164062 46.71492188 -4.26328125 47.86734375 -4.9140625 49.0546875 C-5.39617187 49.92351562 -5.87828125 50.79234375 -6.375 51.6875 C-9.04367946 50.35316027 -9.07636846 49.24752795 -10.03125 46.4609375 C-10.48177734 45.15962891 -10.48177734 45.15962891 -10.94140625 43.83203125 C-11.24949219 42.91808594 -11.55757812 42.00414062 -11.875 41.0625 C-12.18308594 40.17175781 -12.49117187 39.28101563 -12.80859375 38.36328125 C-14.47552591 33.50556907 -16.01797762 28.64063169 -17.375 23.6875 C-21.335 24.1825 -21.335 24.1825 -25.375 24.6875 C-24.90828373 19.27359132 -24.13202189 15.48232068 -21.375 10.6875 C-17.745 10.6875 -14.115 10.6875 -10.375 10.6875 C-9.9625 9.78 -9.55 8.8725 -9.125 7.9375 C-6.64440819 3.33068663 -5.2618421 1.07185672 0 0 Z " fill="#EB570C" transform="translate(189.375,268.3125)"/>
<path d="M0 0 C0.25328119 5.06562383 -0.66416101 9.15758367 -2 14 C1.3 14 4.6 14 8 14 C7.16732129 21.32757266 7.16732129 21.32757266 4 24 C1.8359375 24.38354492 1.8359375 24.38354492 -0.625 24.60546875 C-1.44226563 24.6830542 -2.25953125 24.76063965 -3.1015625 24.84057617 C-4.04128906 24.91949097 -4.04128906 24.91949097 -5 25 C-5.6520027 27.81119304 -6.29670121 30.62375031 -6.9375 33.4375 C-7.11990234 34.22060547 -7.30230469 35.00371094 -7.49023438 35.81054688 C-8.71020238 41.20058734 -9.47675456 46.49766112 -10 52 C-7.36 51.67 -4.72 51.34 -2 51 C-1.67 53.31 -1.34 55.62 -1 58 C-6.88515845 61.11649053 -12.2766522 63.39754982 -19 62 C-22.11053894 60.72634311 -22.79510764 59.82678508 -25 57 C-27.65506559 46.66788428 -21.89769878 32.95920796 -19 23 C-20.65 23 -22.3 23 -24 23 C-23.6875 19.625 -23.6875 19.625 -23 16 C-20 14 -20 14 -17 14 C-16.9175 13.29875 -16.835 12.5975 -16.75 11.875 C-15.80236638 8.24240445 -14.34176821 5.92721026 -12 3 C-8.30692109 1.01141905 -4.20744471 0 0 0 Z " fill="#094A9D" transform="translate(683,350)"/>
<path d="M0 0 C0.33 0.99 0.66 1.98 1 3 C2.051875 2.9175 3.10375 2.835 4.1875 2.75 C8 3 8 3 10.9375 4.3125 C14.16634236 8.51977944 13.39715546 12.88110743 13 18 C13.90492188 18.21462891 13.90492188 18.21462891 14.828125 18.43359375 C17.3192196 19.08324972 19.62581198 20.01075499 22 21 C22.59720137 26.82271337 20.528243 30.9209404 18 36 C16.51874634 35.7690564 16.51874634 35.7690564 15.00756836 35.53344727 C10.97724717 34.95913171 6.94187445 34.68640868 2.87890625 34.46484375 C2.13414536 34.42186661 1.38938446 34.37888947 0.62205505 34.33460999 C-1.73098117 34.19945973 -4.08422455 34.06841165 -6.4375 33.9375 C-8.04363533 33.84597539 -9.64975532 33.75418112 -11.25585938 33.66210938 C-15.17040251 33.43828931 -19.08513669 33.21814511 -23 33 C-21.8900149 29.53495086 -20.73916314 26.22874611 -19.08984375 22.984375 C-18.73986328 22.29085938 -18.38988281 21.59734375 -18.02929688 20.8828125 C-17.66900391 20.17898438 -17.30871094 19.47515625 -16.9375 18.75 C-16.57333984 18.03070313 -16.20917969 17.31140625 -15.83398438 16.5703125 C-14.89258917 14.71188352 -13.94661263 12.85577685 -13 11 C-12.67 10.34 -12.34 9.68 -12 9 C-10.9275 9.103125 -9.855 9.20625 -8.75 9.3125 C-4.91191607 9.3860489 -4.91191607 9.3860489 -2.625 6.75 C-1.22814252 4.38608735 -0.39816303 2.68760048 0 0 Z " fill="#FAD22F" transform="translate(208,294)"/>
<path d="M0 0 C0.69480469 -0.01611328 1.38960938 -0.03222656 2.10546875 -0.04882812 C6.86195623 -0.05330693 10.05172956 0.8927986 14.125 3.3125 C12.83285519 6.19497688 11.64908684 8.37264 9.125 10.3125 C6.75 10.31640625 6.75 10.31640625 4.125 9.875 C-0.10174013 9.10858409 -0.10174013 9.10858409 -3.875 11.3125 C-3.58460645 14.71425301 -3.16067985 16.03740089 -0.66015625 18.4453125 C0.23832031 19.10273438 1.13679688 19.76015625 2.0625 20.4375 C5.09100535 22.67728669 7.01984625 24.15476938 9.125 27.3125 C9.92775644 32.69519317 9.88560417 37.00521158 7.125 41.75 C0.40168545 47.49283118 -4.87298247 48.96778886 -13.796875 48.71875 C-18.04215124 48.15845973 -20.46603081 46.84940731 -23.875 44.3125 C-23.27572174 40.95654172 -22.02877564 38.93448774 -19.875 36.3125 C-19.194375 36.6425 -18.51375 36.9725 -17.8125 37.3125 C-14.33650705 38.49581675 -11.52536451 38.51912441 -7.875 38.3125 C-6.885 37.8175 -6.885 37.8175 -5.875 37.3125 C-5.51919364 34.97579423 -5.51919364 34.97579423 -5.875 32.3125 C-7.69302853 30.22019699 -7.69302853 30.22019699 -10.125 28.4375 C-18.41468484 21.45533643 -18.41468484 21.45533643 -19.09375 15.34375 C-18.86347952 10.35455617 -16.83065482 7.39201561 -13.54296875 3.7578125 C-9.33673661 0.11306802 -5.41658972 -0.02484674 0 0 Z " fill="#EC5F20" transform="translate(402.875,363.6875)"/>
<path d="M0 0 C0 3.63 0 7.26 0 11 C0.9075 9.741875 1.815 8.48375 2.75 7.1875 C4.88659324 4.22540483 6.86948093 1.92647328 10 0 C13.75 -0.1875 13.75 -0.1875 17 0 C16.40380045 4.86896303 15.43023178 9.32790951 14 14 C12.4221875 14.12375 12.4221875 14.12375 10.8125 14.25 C5.87656283 15.22100403 3.60605708 16.74387219 0.6875 20.84375 C-4.15271206 28.79552695 -5.95914044 37.84043585 -7 47 C-11.62 47 -16.24 47 -21 47 C-20.37486155 38.76380086 -18.81009239 30.92649586 -17 22.875 C-14.55767124 12.01228455 -14.55767124 12.01228455 -13 1 C-8.59085217 -0.10228696 -4.51617599 -0.07654536 0 0 Z " fill="#08479A" transform="translate(641,364)"/>
<path d="M0 0 C4.26357798 2.31763726 7.31150957 4.96726435 10 9 C10.30078125 11.7421875 10.30078125 11.7421875 10.3125 14.875 C10.32925781 15.90367187 10.34601563 16.93234375 10.36328125 17.9921875 C9.94894627 21.4227029 9.04270329 23.23662336 7 26 C2.16346116 29.65208035 -1.58087572 30.65849579 -7.63671875 30.3828125 C-12.54995471 29.58694949 -15.14516285 26.94482001 -18.375 23.375 C-20.58516602 18.78465518 -20.91077988 15.00532944 -20 10 C-18.22871822 5.95997006 -15.82835057 3.58361063 -12.25 1.0625 C-7.99069286 -0.3299658 -4.42346792 -0.93989369 0 0 Z " fill="#E8570D" transform="translate(207,414)"/>
<path d="M0 0 C4.62 0 9.24 0 14 0 C12.88076181 7.74857206 11.5512247 15.36836457 9.86328125 23.01171875 C8.77946558 27.95252968 7.79950971 32.91411579 6.8125 37.875 C6.63348145 38.77420166 6.45446289 39.67340332 6.27001953 40.59985352 C5.84589818 42.73308045 5.42283308 44.86651734 5 47 C0.38 47 -4.24 47 -9 47 C-7.6888512 37.38490878 -6.04316153 27.91232193 -3.796875 18.46875 C-2.38904487 12.34054824 -1.210927 6.16996137 0 0 Z " fill="#EC6222" transform="translate(467,364)"/>
<path d="M0 0 C2.97 0.495 2.97 0.495 6 1 C5.34 1.33 4.68 1.66 4 2 C3.31775061 3.99473813 2.65509503 5.99617991 2 8 C0.72958894 10.79281598 -0.66458187 13.51918318 -2.0625 16.25 C-2.60874023 17.32894531 -2.60874023 17.32894531 -3.16601562 18.4296875 C-4.10741083 20.28811648 -5.05338737 22.14422315 -6 24 C-6.33 24.66 -6.66 25.32 -7 26 C-5.58074219 25.98259766 -5.58074219 25.98259766 -4.1328125 25.96484375 C3.4679366 25.90165001 11.03431963 26.02279043 18.625 26.4375 C19.36991699 26.47673584 20.11483398 26.51597168 20.88232422 26.55639648 C24.98058135 26.79809809 28.96508677 27.24265824 33 28 C33 28.99 33 29.98 33 31 C14.94365054 30.64865628 -3.04782119 29.84433912 -21.0625 28.5625 C-21.94629333 28.50105804 -22.83008667 28.43961609 -23.74066162 28.37631226 C-34.55881932 27.61759544 -45.27004785 26.59086338 -56 25 C-56.31243652 23.8960791 -56.62487305 22.7921582 -56.94677734 21.65478516 C-57.75648414 18.84502373 -58.63581694 16.12273071 -59.625 13.375 C-60.72741086 10.13424446 -61.33484809 7.46009695 -61 4 C-59.68 3.67 -58.36 3.34 -57 3 C-56.34922704 5.04009755 -55.70460176 7.08215669 -55.0625 9.125 C-54.70285156 10.26195312 -54.34320313 11.39890625 -53.97265625 12.5703125 C-53.08101661 15.71432699 -52.46648986 18.76894393 -52 22 C-51.3922876 22.01981934 -50.7845752 22.03963867 -50.15844727 22.06005859 C-39.82789858 22.41229168 -29.51951185 22.77089666 -19.25 24 C-18.55463135 24.0829834 -17.8592627 24.1659668 -17.14282227 24.25146484 C-14.28818988 24.61723146 -11.7393217 25.08689277 -9 26 C-9.30035156 25.32453125 -9.60070312 24.6490625 -9.91015625 23.953125 C-10.29042969 23.06109375 -10.67070312 22.1690625 -11.0625 21.25 C-11.63677734 19.92742187 -11.63677734 19.92742187 -12.22265625 18.578125 C-13.04600008 15.84743691 -12.9773992 14.63098653 -12 12 C-11.34 13.98 -10.68 15.96 -10 18 C-9.69707031 17.45472656 -9.39414063 16.90945313 -9.08203125 16.34765625 C-6.0546875 10.8984375 -3.02734375 5.44921875 0 0 Z " fill="#B39A0F" transform="translate(192,301)"/>
<path d="M0 0 C9.35648925 -0.04716317 18.71293519 -0.08228162 28.06951904 -0.10362434 C32.4181347 -0.11388803 36.76666681 -0.12771048 41.11523438 -0.15087891 C62.37293488 -0.26104636 83.42150269 0.19112915 104.62487793 1.75952148 C109.41631907 2.10091318 114.2103607 2.35812902 119.0078125 2.59765625 C119.79178406 2.6380603 120.57575562 2.67846436 121.38348389 2.72009277 C124.42119518 2.87646284 127.45905764 3.02953188 130.49707031 3.17993164 C132.81331345 3.29536455 135.129311 3.41498651 137.4453125 3.53515625 C138.76031738 3.600979 140.07532227 3.66680176 141.43017578 3.73461914 C144.67721659 3.97600427 147.80124422 4.40405641 151 5 C151.33 6.32 151.66 7.64 152 9 C146.46428137 9.16722049 140.92842623 9.32781942 135.39233398 9.48217773 C133.50751524 9.5356766 131.62274772 9.5910118 129.73803711 9.64819336 C127.03510589 9.7298851 124.33206161 9.8050554 121.62890625 9.87890625 C120.35703209 9.91945885 120.35703209 9.91945885 119.0594635 9.96083069 C117.04026894 10.01280526 115.01982842 10.01188213 113 10 C112.505 9.505 112.505 9.505 112 9 C109.88394904 8.87608318 107.76378717 8.82200094 105.64428711 8.79467773 C104.64920387 8.77982834 104.64920387 8.77982834 103.63401794 8.76467896 C101.43183005 8.73298263 99.22962055 8.70827466 97.02734375 8.68359375 C95.50419032 8.66303122 93.98104269 8.64203495 92.457901 8.62062073 C88.44168786 8.56532753 84.42542262 8.51595037 80.40911865 8.46777344 C76.31371401 8.41761118 72.21838539 8.36189764 68.12304688 8.30664062 C60.08209545 8.19897046 52.04108059 8.09754533 44 8 C44 7.67 44 7.34 44 7 C61.49 6.67 78.98 6.34 97 6 C90.4 5.67 83.8 5.34 77 5 C75.35 4.67 73.7 4.34 72 4 C72 3.01 72 2.02 72 1 C48.24 1 24.48 1 0 1 C0 0.67 0 0.34 0 0 Z " fill="#EED7C9" transform="translate(424,427)"/>
<path d="M0 0 C3.68137204 1.56654129 6.19896612 3.39793224 8 7 C8.73311631 11.68479205 8.44216999 15.08164694 6.375 19.375 C3.30627206 22.76675193 0.71063503 24.82426138 -3.98828125 25.12890625 C-7.98667747 24.88041835 -9.71064885 24.23902921 -12.875 21.625 C-16.54350597 17.09331615 -17.50516026 14.85985896 -17 9 C-15.75 6.3125 -15.75 6.3125 -14 4 C-13.484375 3.236875 -12.96875 2.47375 -12.4375 1.6875 C-8.54435233 -1.00775608 -4.58265499 -0.61746812 0 0 Z " fill="#E65610" transform="translate(143,423)"/>
<path d="M0 0 C23.13199347 -0.23557847 46.07907934 0.10894481 69.16168213 1.64689636 C74.18697314 1.97267411 79.20211507 2.13476586 84.23583984 2.24414062 C102.98040472 2.67825793 121.58803239 5.01811561 140.20954895 7.0705719 C147.96541457 7.91560332 155.72958592 8.63151865 163.50738525 9.24351501 C169.44574106 9.74356567 175.18112512 10.71742873 181 12 C181 12.33 181 12.66 181 13 C172.93361477 13.27687821 165.05269629 12.32990394 157.05679321 11.40472412 C131.674444 8.48504522 106.30984699 6.82830875 80.7902832 5.69677734 C79.06200431 5.61963203 77.33373268 5.54232363 75.60546875 5.46484375 C74.75909348 5.42709335 73.9127182 5.38934296 73.04069519 5.35044861 C68.47991318 5.13974167 63.937395 4.85356442 59.38671875 4.4765625 C48.15828174 3.62793513 36.87943795 3.62823999 25.625 3.4375 C23.23176467 3.39421946 20.83853541 3.35060245 18.4453125 3.30664062 C12.63027253 3.20054665 6.81517144 3.0986104 1 3 C0.67 2.01 0.34 1.02 0 0 Z " fill="#1A4D92" transform="translate(448,424)"/>
<path d="M0 0 C2.22264333 0.00099144 4.44527985 -0.00001447 6.66792297 -0.0012207 C29.05451749 -0.00574283 51.36256243 0.41965065 73.68928528 2.18847656 C73.68928528 2.51847656 73.68928528 2.84847656 73.68928528 3.18847656 C72.49375031 3.20060684 72.49375031 3.20060684 71.27406311 3.21298218 C61.16231327 3.31751099 51.05075909 3.43506242 40.93928528 3.56347656 C40.1375161 3.57364178 39.33574692 3.58380699 38.5096817 3.59428024 C15.82860427 3.88589032 -6.77049837 4.42733573 -29.40348816 6.01708984 C-33.05068117 6.23209904 -36.65873734 6.25712275 -40.31071472 6.18847656 C-38.31071472 4.18847656 -38.31071472 4.18847656 -35.49040222 3.99316406 C-34.39985535 4.01636719 -33.30930847 4.03957031 -32.18571472 4.06347656 C-31.0900116 4.08152344 -29.99430847 4.09957031 -28.86540222 4.11816406 C-27.60083191 4.15296875 -27.60083191 4.15296875 -26.31071472 4.18847656 C-26.31071472 3.52847656 -26.31071472 2.86847656 -26.31071472 2.18847656 C-37.53071472 2.18847656 -48.75071472 2.18847656 -60.31071472 2.18847656 C-60.31071472 1.85847656 -60.31071472 1.52847656 -60.31071472 1.18847656 C-40.20045808 0.3500691 -20.12586211 -0.01134594 0 0 Z " fill="#D65521" transform="translate(464.3107147216797,430.8115234375)"/>
<path d="M0 0 C-0.49468805 9.89376095 -3.61483396 19.51695501 -10.51171875 26.859375 C-12 28 -12 28 -14.8125 28.5 C-17 28 -17 28 -18 27 C-18.94672018 18.44847835 -17.50801116 11.19974435 -12.6796875 4.04296875 C-8.81502325 -0.46580621 -5.7664233 -0.59652655 0 0 Z " fill="#FAF5EF" transform="translate(322,373)"/>
<path d="M0 0 C0 0.66 0 1.32 0 2 C-0.59167969 2.10957031 -1.18335938 2.21914063 -1.79296875 2.33203125 C-6.50250673 3.27701195 -9.88473607 4.45821934 -14 7 C-14.99 6.67 -15.98 6.34 -17 6 C-17.33 6.99 -17.66 7.98 -18 9 C-24.41194998 9.59310753 -30.82461782 10.17765777 -37.23828125 10.75195312 C-38.91551821 10.90259605 -40.59263715 11.05457158 -42.26953125 11.20898438 C-44.07497328 11.37457225 -45.88120412 11.53150172 -47.6875 11.6875 C-48.66074219 11.77386719 -49.63398438 11.86023438 -50.63671875 11.94921875 C-53 12 -53 12 -56 11 C-56 10.01 -56 9.02 -56 8 C-57.32 7.67 -58.64 7.34 -60 7 C-53.63256033 6.01772762 -47.26449557 5.03958637 -40.89599609 4.06420898 C-38.73309226 3.73246041 -36.57032905 3.39979352 -34.40771484 3.06616211 C-31.28520342 2.58461298 -28.16218803 2.10645435 -25.0390625 1.62890625 C-24.08448151 1.48095108 -23.12990051 1.33299591 -22.14639282 1.18055725 C-17.62597896 0.4924746 -13.1030627 -0.14387632 -8.56005859 -0.66430664 C-7.77795013 -0.75402237 -6.99584167 -0.8437381 -6.19003296 -0.93617249 C-3.92703317 -1.00212659 -2.157224 -0.65532056 0 0 Z " fill="#E5EDF1" transform="translate(204,412)"/>
<path d="M0 0 C-4.14184627 22.05846913 -4.14184627 22.05846913 -12 28 C-14.8125 28.3125 -14.8125 28.3125 -17 28 C-19.33829839 23.32340323 -18.31689387 17.3119225 -16.9375 12.4375 C-13.73449339 3.9360619 -9.37306889 -1.31551844 0 0 Z " fill="#F2F6F8" transform="translate(607,373)"/>
<path d="M0 0 C32.01 0 64.02 0 97 0 C97 0.99 97 1.98 97 3 C89.23490113 3.13298342 81.46976444 3.26348846 73.70457649 3.39115143 C70.09567402 3.45055434 66.48678749 3.51069227 62.87792969 3.57275391 C44.58354702 3.88673509 26.29792082 4.07801288 8 4 C8 3.34 8 2.68 8 2 C5.36 1.67 2.72 1.34 0 1 C0 0.67 0 0.34 0 0 Z " fill="#F5F2EE" transform="translate(399,428)"/>
<path d="M0 0 C1 3 1 3 1 10 C-15.17 10 -31.34 10 -48 10 C-44.62264148 7.74842765 -41.56250739 7.09688328 -37.6640625 6.30859375 C-36.58951309 6.08333763 -36.58951309 6.08333763 -35.49325562 5.85353088 C-33.20506573 5.37537587 -30.91511309 4.90634773 -28.625 4.4375 C-27.09102189 4.11843385 -25.55716613 3.79877885 -24.0234375 3.47851562 C-20.01731423 2.64391796 -16.00949019 1.81828019 -12 1 C-11.09685059 0.80414307 -10.19370117 0.60828613 -9.26318359 0.40649414 C-6.16350821 -0.15024367 -3.14079789 -0.06158427 0 0 Z " fill="#E75F1E" transform="translate(104,360)"/>
<path d="M0 0 C0.99 0 1.98 0 3 0 C3.65077296 2.04009755 4.29539824 4.08215669 4.9375 6.125 C5.29714844 7.26195312 5.65679687 8.39890625 6.02734375 9.5703125 C6.91898339 12.71432699 7.53351014 15.76894393 8 19 C8.6077124 19.01981934 9.2154248 19.03963867 9.84155273 19.06005859 C20.17210142 19.41229168 30.48048815 19.77089666 40.75 21 C41.44536865 21.0829834 42.1407373 21.1659668 42.85717773 21.25146484 C45.71181012 21.61723146 48.2606783 22.08689277 51 23 C51 23.66 51 24.32 51 25 C35.22708179 25.35050929 19.60537905 24.36962664 4 22 C3.731875 21.030625 3.46375 20.06125 3.1875 19.0625 C2.3584035 16.12189157 1.3929743 13.25524008 0.375 10.375 C-0.71680858 7.14368773 -1.43089525 4.44716199 -1 1 C-0.67 0.67 -0.34 0.34 0 0 Z " fill="#769922" transform="translate(132,304)"/>
<path d="M0 0 C2.875 1.5 2.875 1.5 5 4 C5.94237143 7.99893269 5.61136591 10.98105682 3.5 14.5 C-0.02309336 16.61385602 -2.99667231 16.9352036 -7 16 C-10.2769716 13.29649843 -10.90134941 11.62478708 -11.5625 7.4375 C-11 4 -11 4 -8.875 1.5625 C-5.48401457 -0.28042686 -3.80152049 -0.63358675 0 0 Z " fill="#F59012" transform="translate(205,421)"/>
<path d="M0 0 C1.31419922 -0.01224609 2.62839844 -0.02449219 3.98242188 -0.03710938 C5.23474609 -0.03904297 6.48707031 -0.04097656 7.77734375 -0.04296875 C8.93355225 -0.04707764 10.08976074 -0.05118652 11.28100586 -0.05541992 C14.0625 0.1875 14.0625 0.1875 16.0625 2.1875 C15.52678571 5.72321429 15.52678571 5.72321429 14.0625 7.1875 C11.91691173 7.27525605 9.76845579 7.29445219 7.62109375 7.28515625 C6.31591797 7.28193359 5.01074219 7.27871094 3.66601562 7.27539062 C2.2773431 7.26703401 0.88867123 7.25856905 -0.5 7.25 C-1.89257656 7.24498666 -3.28515481 7.24042347 -4.67773438 7.23632812 C-8.0976987 7.22449434 -11.51757844 7.2080088 -14.9375 7.1875 C-14.98004356 5.18795254 -14.97830783 3.18708364 -14.9375 1.1875 C-12.18198489 -1.56801511 -3.71775429 0.00181797 0 0 Z " fill="#0074C9" transform="translate(214.9375,349.8125)"/>
<path d="M0 0 C2.4375 1.0625 2.4375 1.0625 4 3 C4.5 6.4375 4.5 6.4375 4 10 C2.13291495 12.36497439 0.67938569 13.66030715 -2 15 C-5.4375 15.3125 -5.4375 15.3125 -9 15 C-11.58859984 12.82891626 -11.93540857 11.37947467 -12.5 8.0625 C-11.34615218 0.99518212 -6.63509958 -0.96510539 0 0 Z " fill="#F0682D" transform="translate(481,342)"/>
<path d="M0 0 C9.35648925 -0.04716317 18.71293519 -0.08228162 28.06951904 -0.10362434 C32.4181347 -0.11388803 36.76666681 -0.12771048 41.11523438 -0.15087891 C63.49877745 -0.26703838 85.67973063 0.23966387 108 2 C108 2.33 108 2.66 108 3 C106.75283203 3.09087891 106.75283203 3.09087891 105.48046875 3.18359375 C103.85044922 3.30927734 103.85044922 3.30927734 102.1875 3.4375 C100.56908203 3.55931641 100.56908203 3.55931641 98.91796875 3.68359375 C95.94010095 3.90212461 95.94010095 3.90212461 93 5 C90.36383237 5.09679233 87.76034093 5.13924509 85.125 5.125 C84.06345703 5.13080078 84.06345703 5.13080078 82.98046875 5.13671875 C79.19451956 5.12966857 75.67960763 4.90907953 72 4 C72 3.01 72 2.02 72 1 C48.24 1 24.48 1 0 1 C0 0.67 0 0.34 0 0 Z " fill="#C7D4DF" transform="translate(424,427)"/>
<path d="M0 0 C0.495 3.96 0.495 3.96 1 8 C-10.71811669 8.10902914 -22.3222103 8.09908609 -34 7 C-29.47962309 3.98641539 -24.5248615 3.44997178 -19.25 2.375 C-18.1775 2.14554687 -17.105 1.91609375 -16 1.6796875 C-10.56846377 0.55592138 -5.54779761 -0.30116616 0 0 Z " fill="#E86228" transform="translate(110,383)"/>
<path d="M0 0 C9.57 0 19.14 0 29 0 C28.67 1.65 28.34 3.3 28 5 C25.28598706 6.35700647 23.15153684 6.1123861 20.1171875 6.09765625 C18.95058594 6.09443359 17.78398437 6.09121094 16.58203125 6.08789062 C15.35871094 6.07951172 14.13539063 6.07113281 12.875 6.0625 C11.64394531 6.05798828 10.41289062 6.05347656 9.14453125 6.04882812 C6.09630608 6.0370133 3.04817686 6.02054028 0 6 C0 4.02 0 2.04 0 0 Z " fill="#0077CB" transform="translate(200,364)"/>
<path d="M0 0 C14.42121692 0.69476834 28.78020635 2.13609316 43.14697266 3.52905273 C46.68291086 3.87165941 50.219495 4.20703624 53.75629234 4.54064083 C56.51753046 4.80221093 59.27829813 5.06850964 62.0389595 5.336092 C63.96719415 5.52192336 65.89586969 5.70316191 67.82455444 5.88426208 C74.6521535 6.5547147 81.30785487 7.47810561 88 9 C88 9.33 88 9.66 88 10 C79.93204436 10.27693212 72.04934848 9.32970258 64.05184937 8.40444946 C39.74247963 5.60524799 15.45817396 3.82772194 -9 3 C-9 2.67 -9 2.34 -9 2 C-4.545 1.505 -4.545 1.505 0 1 C0 0.67 0 0.34 0 0 Z " fill="#5779AE" transform="translate(541,427)"/>
<path d="M0 0 C3.4375 0.9375 3.4375 0.9375 5.4375 2.0625 C7.12135831 5.21973433 6.33452275 7.58861508 5.4375 10.9375 C3.16152018 13.55066202 1.80763969 13.8846229 -1.625 14.375 C-4.5625 13.9375 -4.5625 13.9375 -6.4375 12.3125 C-7.89736373 9.23056546 -8.05464954 7.31223969 -7.5625 3.9375 C-5.26874134 0.3592365 -4.28872478 -0.07524079 0 0 Z " fill="#F07A11" transform="translate(139.5625,428.0625)"/>
<path d="M0 0 C-1.875 4.875 -1.875 4.875 -3 6 C-4.47803882 6.21575022 -5.96499064 6.37114724 -7.453125 6.5 C-8.83902832 6.62314575 -8.83902832 6.62314575 -10.25292969 6.7487793 C-11.24196289 6.83168213 -12.23099609 6.91458496 -13.25 7 C-14.24676758 7.08612549 -15.24353516 7.17225098 -16.27050781 7.26098633 C-18.26349104 7.43213207 -20.25665481 7.60118932 -22.25 7.76806641 C-24.59463496 7.96581172 -26.93800189 8.17333214 -29.28125 8.38671875 C-30.99828125 8.53560547 -30.99828125 8.53560547 -32.75 8.6875 C-33.73484375 8.77386719 -34.7196875 8.86023438 -35.734375 8.94921875 C-38 9 -38 9 -40 8 C-40 7.34 -40 6.68 -40 6 C-34.94698564 5.14133772 -29.89327257 4.28695944 -24.83886719 3.43652344 C-23.11991881 3.1466819 -21.40116638 2.85567568 -19.68261719 2.56347656 C-17.21079429 2.14340955 -14.73829438 1.72755141 -12.265625 1.3125 C-11.11540863 1.11563599 -11.11540863 1.11563599 -9.94195557 0.91479492 C-6.55812202 0.35058616 -3.44255823 0 0 0 Z " fill="#22549C" transform="translate(189,415)"/>
<path d="M0 0 C0.495 3.465 0.495 3.465 1 7 C-10.67553107 7.62839961 -22.30408812 8.17691295 -34 8 C-30.59481642 5.72987762 -27.35364686 4.93058744 -23.4375 4 C-22.72166748 3.82629883 -22.00583496 3.65259766 -21.26831055 3.47363281 C-6.26070894 -0.13157357 -6.26070894 -0.13157357 0 0 Z " fill="#E45413" transform="translate(99,342)"/>
<path d="M0 0 C1.40958984 -0.00193359 1.40958984 -0.00193359 2.84765625 -0.00390625 C3.83636719 -0.00003906 4.82507813 0.00382812 5.84375 0.0078125 C7.32681641 0.00201172 7.32681641 0.00201172 8.83984375 -0.00390625 C9.77957031 -0.00261719 10.71929687 -0.00132812 11.6875 0 C12.55568359 0.00112793 13.42386719 0.00225586 14.31835938 0.00341797 C16.34375 0.1328125 16.34375 0.1328125 17.34375 1.1328125 C17.34375 2.7828125 17.34375 4.4328125 17.34375 6.1328125 C9.75375 6.1328125 2.16375 6.1328125 -5.65625 6.1328125 C-5.65625 0.00734851 -5.65625 0.00734851 0 0 Z " fill="#0078CB" transform="translate(177.65625,349.8671875)"/>
<path d="M0 0 C7.26 0 14.52 0 22 0 C22.33 1.65 22.66 3.3 23 5 C21.37799485 6.62200515 19.57976969 6.1299075 17.34375 6.1328125 C15.93416016 6.13474609 15.93416016 6.13474609 14.49609375 6.13671875 C13.50738281 6.13285156 12.51867187 6.12898438 11.5 6.125 C10.51128906 6.12886719 9.52257812 6.13273437 8.50390625 6.13671875 C7.56417969 6.13542969 6.62445313 6.13414062 5.65625 6.1328125 C4.78806641 6.13168457 3.91988281 6.13055664 3.02539062 6.12939453 C1 6 1 6 0 5 C0 3.35 0 1.7 0 0 Z " fill="#0175C8" transform="translate(172,364)"/>
<path d="M0 0 C1.9375 1 1.9375 1 3 3 C3.23595284 5.71882023 3.13477523 8.25957022 3 11 C-2.4389165 11.21755666 -6.87080814 11.10428384 -12 9 C-9.82752329 1.47988832 -8.21133895 -0.87978632 0 0 Z " fill="#F9F2EF" transform="translate(193,272)"/>
<path d="M0 0 C7.14138498 -0.12602444 14.24520308 0.05307162 21.375 0.4375 C22.13538574 0.47673584 22.89577148 0.51597168 23.67919922 0.55639648 C27.84919098 0.79540261 31.88733813 1.22316387 36 2 C36 2.99 36 3.98 36 5 C31.64398849 4.8802934 27.28813814 4.75597864 22.93237305 4.62768555 C21.45551988 4.58480139 19.97863175 4.54310173 18.50170898 4.50268555 C9.97163714 4.26839059 1.48913099 3.92830293 -7 3 C-7 2.67 -7 2.34 -7 2 C-3.535 1.505 -3.535 1.505 0 1 C0 0.67 0 0.34 0 0 Z " fill="#CDAC3E" transform="translate(189,327)"/>
<path d="M0 0 C2.5 2.5 2.5 2.5 4 5 C0.89621148 7.63822024 -1.81462924 8.70365731 -5.75 9.6875 C-7.22726563 10.06455078 -7.22726563 10.06455078 -8.734375 10.44921875 C-9.48203125 10.63097656 -10.2296875 10.81273437 -11 11 C-11.35820896 3.71641791 -11.35820896 3.71641791 -10 1 C-6.73791556 -0.63104222 -3.50107518 -0.78897469 0 0 Z " fill="#F5F8EB" transform="translate(154,289)"/>
<path d="M0 0 C0.99 0 1.98 0 3 0 C5.31993846 7.28640866 7.47536437 14.50387484 9 22 C7.35 22 5.7 22 4 22 C3.731875 21.030625 3.46375 20.06125 3.1875 19.0625 C2.3584035 16.12189157 1.3929743 13.25524008 0.375 10.375 C-0.71680858 7.14368773 -1.43089525 4.44716199 -1 1 C-0.67 0.67 -0.34 0.34 0 0 Z " fill="#63911E" transform="translate(132,304)"/>
<path d="M0 0 C0.70125 0.00515625 1.4025 0.0103125 2.125 0.015625 C2.82625 0.01046875 3.5275 0.0053125 4.25 0 C6.125 0.265625 6.125 0.265625 8.125 2.265625 C8.39491906 4.95401885 8.21237357 7.55704436 8.125 10.265625 C3.27840923 9.67457735 -0.48248167 8.28618343 -4.875 6.265625 C-4.22256476 3.00344879 -3.71990039 0.52698589 0 0 Z " fill="#FBFAEE" transform="translate(210.875,299.734375)"/>
<path d="M0 0 C4.95 0 9.9 0 15 0 C15 1.98 15 3.96 15 6 C10.05 6 5.1 6 0 6 C0 4.02 0 2.04 0 0 Z " fill="#0073C7" transform="translate(151,350)"/>
<path d="M0 0 C-1.3922459 4.62675657 -3.29520984 8.64686231 -5.625 12.875 C-6.25664062 14.02742188 -6.88828125 15.17984375 -7.5390625 16.3671875 C-8.02117187 17.23601562 -8.50328125 18.10484375 -9 19 C-11 18 -11 18 -11.8515625 15.71484375 C-12.10679687 14.79832031 -12.36203125 13.88179688 -12.625 12.9375 C-12.88539063 12.01839844 -13.14578125 11.09929687 -13.4140625 10.15234375 C-13.60742188 9.44207031 -13.80078125 8.73179687 -14 8 C-13.25105469 7.90847656 -12.50210938 7.81695312 -11.73046875 7.72265625 C-8.55739303 6.88285796 -7.4804382 5.84902676 -5.3125 3.4375 C-2.19315895 0 -2.19315895 0 0 0 Z " fill="#B12A07" transform="translate(192,301)"/>
<path d="M0 0 C4.61695223 0.60550193 5.95159645 1.75680787 8.72265625 5.34375 C10.63076442 9.11893176 10.1959487 12.34597241 9.8125 16.5 C13.1125 17.16 16.4125 17.82 19.8125 18.5 C19.8125 20.81 19.8125 23.12 19.8125 25.5 C19.4825 25.5 19.1525 25.5 18.8125 25.5 C18.8125 23.52 18.8125 21.54 18.8125 19.5 C18.07644531 19.37882812 17.34039062 19.25765625 16.58203125 19.1328125 C15.60621094 18.96523438 14.63039062 18.79765625 13.625 18.625 C12.66207031 18.46257812 11.69914063 18.30015625 10.70703125 18.1328125 C7.90217396 17.51960483 5.44025253 16.64333657 2.8125 15.5 C4.1325 15.17 5.4525 14.84 6.8125 14.5 C6.68875 13.22125 6.565 11.9425 6.4375 10.625 C6.36789063 9.90570313 6.29828125 9.18640625 6.2265625 8.4453125 C5.94875251 6.27331755 5.94875251 6.27331755 3.8125 4.5 C2.14749557 4.15846063 0.48071323 3.82550502 -1.1875 3.5 C-2.1775 2.84 -3.1675 2.18 -4.1875 1.5 C-3.1875 0.5 -3.1875 0.5 0 0 Z " fill="#E6805E" transform="translate(189.1875,268.5)"/>
<path d="M0 0 C4.95 0 9.9 0 15 0 C15 1.65 15 3.3 15 5 C10.05 5 5.1 5 0 5 C0 3.35 0 1.7 0 0 Z " fill="#0077CC" transform="translate(151,364)"/>
<path d="M0 0 C0 0.66 0 1.32 0 2 C-3.22823979 2.50610903 -6.45772365 3.00379907 -9.6875 3.5 C-10.59951172 3.64308594 -11.51152344 3.78617187 -12.45117188 3.93359375 C-13.78051758 4.13662109 -13.78051758 4.13662109 -15.13671875 4.34375 C-16.35427856 4.53227539 -16.35427856 4.53227539 -17.59643555 4.72460938 C-20.08533405 5.00977723 -22.49706689 5.04674739 -25 5 C-25.33 5.66 -25.66 6.32 -26 7 C-26 6.01 -26 5.02 -26 4 C-27.32 3.67 -28.64 3.34 -30 3 C-25.75202223 2.29959257 -21.50138178 1.61691386 -17.25 0.9375 C-15.44015625 0.63875977 -15.44015625 0.63875977 -13.59375 0.33398438 C-12.43359375 0.15029297 -11.2734375 -0.03339844 -10.078125 -0.22265625 C-8.47565918 -0.48187866 -8.47565918 -0.48187866 -6.84082031 -0.74633789 C-4.20016422 -0.98212697 -2.48550551 -0.84161104 0 0 Z " fill="#D6E3ED" transform="translate(174,416)"/>
<path d="M0 0 C1.32 0 2.64 0 4 0 C3.7451971 1.96048352 3.47063056 3.91840673 3.1875 5.875 C3.03667969 6.96554687 2.88585937 8.05609375 2.73046875 9.1796875 C2 12 2 12 -1 14 C-1.99 14 -2.98 14 -4 14 C-3.53328373 8.58609132 -2.75702189 4.79482068 0 0 Z " fill="#C42919" transform="translate(168,279)"/>
<path d="M0 0 C3.0625 2.375 3.0625 2.375 5 5 C5 5.66 5 6.32 5 7 C5.99 7.33 6.98 7.66 8 8 C6.02 8.33 4.04 8.66 2 9 C2.33 8.34 2.66 7.68 3 7 C2.05270463 4.84188612 2.05270463 4.84188612 0 3 C-2.84227545 2.50013152 -5.06915075 2.7208715 -8 3 C-10.3129482 5.3129482 -10.49580975 6.47904875 -11.125 9.625 C-11.37636719 10.85089844 -11.37636719 10.85089844 -11.6328125 12.1015625 C-11.75398437 12.72804688 -11.87515625 13.35453125 -12 14 C-12.33 14 -12.66 14 -13 14 C-13.6104394 5.11471542 -13.6104394 5.11471542 -11.5625 1.375 C-7.7203523 -0.68664023 -4.2563501 -0.90125563 0 0 Z " fill="#A4CB6A" transform="translate(154,287)"/>
<path d="M0 0 C0.33 0 0.66 0 1 0 C1.09796875 0.89203125 1.1959375 1.7840625 1.296875 2.703125 C1.44640625 3.87359375 1.5959375 5.0440625 1.75 6.25 C1.88921875 7.41015625 2.0284375 8.5703125 2.171875 9.765625 C3.10674972 13.41692814 3.99789781 14.76986695 7 17 C9.10938065 17.68116938 9.10938065 17.68116938 11.25 17.75 C12.4875 17.8325 13.725 17.915 15 18 C13.68 18.33 12.36 18.66 11 19 C11.33 20.32 11.66 21.64 12 23 C11.01 23 10.02 23 9 23 C9.33 22.34 9.66 21.68 10 21 C9.2575 20.7525 8.515 20.505 7.75 20.25 C3.8633419 18.48333723 1.71514985 16.76953746 0.0859375 12.73828125 C-0.66454541 10.50436716 -1.36033543 8.26790167 -2 6 C-1.34 6 -0.68 6 0 6 C0 4.02 0 2.04 0 0 Z " fill="#F4DAC7" transform="translate(289,394)"/>
<path d="M0 0 C-1.875 4.875 -1.875 4.875 -3 6 C-4.68608966 6.07205511 -6.37500659 6.08386068 -8.0625 6.0625 C-8.98160156 6.05347656 -9.90070313 6.04445313 -10.84765625 6.03515625 C-11.55792969 6.02355469 -12.26820313 6.01195312 -13 6 C-11.68 5.67 -10.36 5.34 -9 5 C-9 4.34 -9 3.68 -9 3 C-10.98 3 -12.96 3 -15 3 C-15 2.67 -15 2.34 -15 2 C-13.2508503 1.66223316 -11.50063855 1.32996329 -9.75 1 C-8.77546875 0.814375 -7.8009375 0.62875 -6.796875 0.4375 C-4 0 -4 0 0 0 Z " fill="#3164A6" transform="translate(189,415)"/>
<path d="M0 0 C0.33 0.99 0.66 1.98 1 3 C2.5778125 2.87625 2.5778125 2.87625 4.1875 2.75 C8 3 8 3 11 4.5 C13 7 13 7 13.08203125 9.046875 C12.8125 11.25 12.8125 11.25 12 15 C11.67 15 11.34 15 11 15 C10.855625 13.865625 10.71125 12.73125 10.5625 11.5625 C10.38828522 8.19222799 10.38828522 8.19222799 9 7 C3.82264323 6.62947661 3.82264323 6.62947661 -1 8 C-0.67 5.36 -0.34 2.72 0 0 Z " fill="#F1CE64" transform="translate(208,294)"/>
<path d="M0 0 C0.33 0.66 0.66 1.32 1 2 C-14.65765766 5.17117117 -14.65765766 5.17117117 -19 3 C-19 2.34 -19 1.68 -19 1 C-16.95857606 0.83038614 -14.91684689 0.66444404 -12.875 0.5 C-11.16957031 0.36078125 -11.16957031 0.36078125 -9.4296875 0.21875 C-6.27402851 0.0174779 -3.16078835 -0.03842904 0 0 Z " fill="#104294" transform="translate(168,420)"/>
<path d="M0 0 C-0.56589844 0.19335938 -1.13179687 0.38671875 -1.71484375 0.5859375 C-2.44832031 0.84632813 -3.18179688 1.10671875 -3.9375 1.375 C-4.66839844 1.63023437 -5.39929688 1.88546875 -6.15234375 2.1484375 C-8.18682116 2.85271413 -8.18682116 2.85271413 -9 5 C-13.62 5 -18.24 5 -23 5 C-19.50412041 2.66941361 -16.07958685 1.80868 -12.0625 0.8125 C-11.34642578 0.62236328 -10.63035156 0.43222656 -9.89257812 0.23632812 C-6.19660167 -0.6919477 -3.63448981 -1.1215946 0 0 Z " fill="#E27041" transform="translate(88,345)"/>
<path d="M0 0 C0.33 0.99 0.66 1.98 1 3 C0.18015625 2.96519531 -0.6396875 2.93039062 -1.484375 2.89453125 C-3.10085937 2.85392578 -3.10085937 2.85392578 -4.75 2.8125 C-5.81734375 2.77769531 -6.8846875 2.74289062 -7.984375 2.70703125 C-11.30027855 3.02917214 -12.59016673 3.77148914 -15 6 C-15 4.35 -15 2.7 -15 1 C-10.45434407 -2.03043728 -5.04206825 -1.68068942 0 0 Z " fill="#E9E1DB" transform="translate(144,421)"/>
<path d="M0 0 C0.66 0.33 1.32 0.66 2 1 C-2.76008307 6.5930976 -7.74595676 11.86877855 -13 17 C-13.66 16.67 -14.32 16.34 -15 16 C-7.575 8.08 -7.575 8.08 0 0 Z " fill="#EB723B" transform="translate(292,344)"/>
<path d="M0 0 C2.20826378 -0.02722517 4.41662638 -0.04649729 6.625 -0.0625 C7.85476562 -0.07410156 9.08453125 -0.08570313 10.3515625 -0.09765625 C13.67723791 -0.00863924 16.74047588 0.36313913 20 1 C20 1.66 20 2.32 20 3 C6.76936122 3.2133974 6.76936122 3.2133974 1 2 C0.67 1.34 0.34 0.68 0 0 Z " fill="#CCA019" transform="translate(205,328)"/>
<path d="M0 0 C-1.54545146 5.47932789 -4.15543212 10.11429181 -7 15 C-8.04449911 11.86650268 -7.93423645 11.01031744 -7 8 C-7.99 8 -8.98 8 -10 8 C-8.71451591 6.66070495 -7.42141845 5.32871357 -6.125 4 C-5.04605469 2.88625 -5.04605469 2.88625 -3.9453125 1.75 C-2 0 -2 0 0 0 Z " fill="#B63703" transform="translate(192,301)"/>
<path d="M0 0 C2.1585087 3.23776305 3.38901393 6.29418616 4.75 9.9375 C5.21921875 11.16339844 5.6884375 12.38929688 6.171875 13.65234375 C7 17 7 17 6.140625 19.44140625 C5.76421875 19.95574219 5.3878125 20.47007812 5 21 C3.09260973 17.61645552 2.23265257 14.27713656 1.375 10.5 C1.11460938 9.3759375 0.85421875 8.251875 0.5859375 7.09375 C0 4 0 4 0 0 Z " fill="#BFD2E6" transform="translate(120,347)"/>
<path d="M0 0 C0.33 0 0.66 0 1 0 C1 2.97 1 5.94 1 9 C1.99 9.33 2.98 9.66 4 10 C2.68 10 1.36 10 0 10 C0 9.34 0 8.68 0 8 C-0.58007812 7.96261719 -1.16015625 7.92523438 -1.7578125 7.88671875 C-6.81678864 7.46096333 -10.54279158 6.62861009 -15 4 C-14.67 3.01 -14.34 2.02 -14 1 C-14 1.66 -14 2.32 -14 3 C-9.66914029 4.29925791 -5.48525648 5.343621 -1 6 C-0.67 4.02 -0.34 2.04 0 0 Z " fill="#EDCE4E" transform="translate(220,303)"/>
<path d="M0 0 C3.75 0.375 3.75 0.375 6.6875 2.25 C9.57275119 6.62159272 9.19494135 10.28289339 8.75 15.375 C8.42 15.375 8.09 15.375 7.75 15.375 C7.62882813 14.74851562 7.50765625 14.12203125 7.3828125 13.4765625 C7.21523437 12.65929687 7.04765625 11.84203125 6.875 11 C6.71257812 10.18789063 6.55015625 9.37578125 6.3828125 8.5390625 C5.88341068 6.18826077 5.88341068 6.18826077 3.75 4.375 C2.08499557 4.03346063 0.41821323 3.70050502 -1.25 3.375 C-2.24 2.715 -3.23 2.055 -4.25 1.375 C-3.25 0.375 -3.25 0.375 0 0 Z " fill="#E26F6A" transform="translate(189.25,268.625)"/>
<path d="M0 0 C-0.33 0.66 -0.66 1.32 -1 2 C-1.72445312 1.93039062 -2.44890625 1.86078125 -3.1953125 1.7890625 C-8.89908537 1.33380718 -8.89908537 1.33380718 -14.06640625 3.3359375 C-15.89163954 5.14553973 -15.89163954 5.14553973 -18 8 C-18.66 7.67 -19.32 7.34 -20 7 C-15.39302938 -1.59967849 -8.94150993 -0.77166456 0 0 Z " fill="#E7814F" transform="translate(528,364)"/>
<path d="M0 0 C1.65 0 3.3 0 5 0 C4.34 0.66 3.68 1.32 3 2 C2.28072705 4.31765729 1.6090107 6.65095874 1 9 C2.65 9 4.3 9 6 9 C6 10.65 6 12.3 6 14 C5.67 12.68 5.34 11.36 5 10 C3.35 10 1.7 10 0 10 C-0.74926071 6.33694766 -1.2380014 3.57644848 0 0 Z " fill="#A4BCD6" transform="translate(658,364)"/>
<path d="M0 0 C-0.33 0.33 -0.66 0.66 -1 1 C1.64 1 4.28 1 7 1 C3.71508627 3.18994248 2.16904361 3.35277339 -1.6875 3.625 C-3.17830078 3.73714844 -3.17830078 3.73714844 -4.69921875 3.8515625 C-5.45847656 3.90054687 -6.21773437 3.94953125 -7 4 C-7 3.34 -7 2.68 -7 2 C-8.32 1.67 -9.64 1.34 -11 1 C-9.5437328 0.63743142 -8.08488815 0.28520207 -6.625 -0.0625 C-5.40683594 -0.35833984 -5.40683594 -0.35833984 -4.1640625 -0.66015625 C-2 -1 -2 -1 0 0 Z " fill="#CECED1" transform="translate(211,443)"/>
<path d="M0 0 C0.99 0.33 1.98 0.66 3 1 C2.67 2.32 2.34 3.64 2 5 C1.01 5 0.02 5 -1 5 C-2.89739368 6.5334075 -2.89739368 6.5334075 -4.6875 8.5 C-5.31011719 9.1496875 -5.93273437 9.799375 -6.57421875 10.46875 C-7.27998047 11.22671875 -7.27998047 11.22671875 -8 12 C-8.66 11.67 -9.32 11.34 -10 11 C-9.50628906 10.51789063 -9.01257813 10.03578125 -8.50390625 9.5390625 C-7.86324219 8.90742188 -7.22257813 8.27578125 -6.5625 7.625 C-5.92441406 6.99851562 -5.28632812 6.37203125 -4.62890625 5.7265625 C-2.92117824 4.08276939 -2.92117824 4.08276939 -2 2 C-1.34 2 -0.68 2 0 2 C0 1.34 0 0.68 0 0 Z " fill="#EEE9E4" transform="translate(528,364)"/>
<path d="M0 0 C3.63 0.66 7.26 1.32 11 2 C9.68 2.33 8.36 2.66 7 3 C7.33 4.32 7.66 5.64 8 7 C7.01 7 6.02 7 5 7 C5.33 6.34 5.66 5.68 6 5 C5.195625 4.731875 4.39125 4.46375 3.5625 4.1875 C2.716875 3.795625 1.87125 3.40375 1 3 C0.67 2.01 0.34 1.02 0 0 Z " fill="#F8E6D8" transform="translate(293,410)"/>
<path d="M0 0 C0 0.33 0 0.66 0 1 C-1.98 1 -3.96 1 -6 1 C-8.12046792 4.53411321 -8.53199289 7.94393835 -9 12 C-9.66 11.34 -10.32 10.68 -11 10 C-10.81752046 6.6545418 -10.57445993 3.98934766 -8.875 1.0625 C-5.96905769 -0.58420065 -3.26178195 -0.18462917 0 0 Z " fill="#396DAD" transform="translate(90,310)"/>
<path d="M0 0 C4.49996683 -0.44117322 6.34611117 -0.52867608 9.9375 2.375 C12 5 12 5 12 7 C12.99 7.33 13.98 7.66 15 8 C13.02 8.33 11.04 8.66 9 9 C9.33 8.34 9.66 7.68 10 7 C6.82679218 3.46413986 4.83256305 1.41421969 0 1 C0 0.67 0 0.34 0 0 Z " fill="#9FC85D" transform="translate(147,287)"/>
<path d="M0 0 C1.45792884 -0.05399736 2.91642712 -0.09279177 4.375 -0.125 C5.18710938 -0.14820313 5.99921875 -0.17140625 6.8359375 -0.1953125 C9 0 9 0 11 2 C10 3 10 3 7.93359375 3.09765625 C7.10988281 3.08605469 6.28617188 3.07445312 5.4375 3.0625 C4.61121094 3.05347656 3.78492188 3.04445313 2.93359375 3.03515625 C2.29550781 3.02355469 1.65742188 3.01195312 1 3 C0.67 2.01 0.34 1.02 0 0 Z " fill="#749D17" transform="translate(140,323)"/>
<path d="M0 0 C0 0.33 0 0.66 0 1 C-1.5159375 1.309375 -1.5159375 1.309375 -3.0625 1.625 C-7.64907657 2.89800901 -10.6373197 5.74974974 -14 9 C-11.71647031 1.5266301 -7.6121741 -0.59703326 0 0 Z " fill="#CFDFEB" transform="translate(655,378)"/>
<path d="M0 0 C1.41655793 -0.0272415 2.83327045 -0.04650467 4.25 -0.0625 C5.43335938 -0.07990234 5.43335938 -0.07990234 6.640625 -0.09765625 C8.90691002 -0.00385306 10.8288895 0.36758937 13 1 C12.67 1.99 12.34 2.98 12 4 C7.91621717 3.25749403 3.98060777 2.17076699 0 1 C0 0.67 0 0.34 0 0 Z " fill="#D74C07" transform="translate(191,300)"/>
<path d="M0 0 C0 0.33 0 0.66 0 1 C-1.2375 1.0825 -2.475 1.165 -3.75 1.25 C-6.98882964 1.63475459 -7.87907883 1.90024003 -10.5 4.0625 C-11.2425 5.0215625 -11.2425 5.0215625 -12 6 C-11.6875 3.625 -11.6875 3.625 -11 1 C-6.8204355 -1.78637633 -4.85331323 -0.79562512 0 0 Z " fill="#F4D5C1" transform="translate(410,373)"/>
<path d="M0 0 C0 0.66 0 1.32 0 2 C-1.75 3.7265625 -1.75 3.7265625 -4 5.625 C-4.7425 6.25664062 -5.485 6.88828125 -6.25 7.5390625 C-6.8275 8.02117187 -7.405 8.50328125 -8 9 C-8.66 8.67 -9.32 8.34 -10 8 C-3.56521739 0 -3.56521739 0 0 0 Z " fill="#2660A4" transform="translate(653,364)"/>
<path d="M0 0 C1.15941038 3.47823115 0.70820884 5.45895578 0 9 C-0.33 9 -0.66 9 -1 9 C-1.33 6.69 -1.66 4.38 -2 2 C-4.31 1.34 -6.62 0.68 -9 0 C-9 -0.33 -9 -0.66 -9 -1 C-5.28390294 -2.03224918 -3.21421745 -2.29586961 0 0 Z " fill="#F4DE82" transform="translate(220,300)"/>
<path d="M0 0 C0.66 0.33 1.32 0.66 2 1 C-0.64 3.64 -3.28 6.28 -6 9 C-6 6 -6 6 -3.5625 3.375 C-2.716875 2.59125 -1.87125 1.8075 -1 1 C-0.67 0.67 -0.34 0.34 0 0 Z " fill="#E46C30" transform="translate(195,415)"/>
<path d="M0 0 C-1.28519565 2.86697492 -2.57129254 4.97607712 -5 7 C-5.66 7 -6.32 7 -7 7 C-3.86206897 0 -3.86206897 0 0 0 Z " fill="#E96C37" transform="translate(393,366)"/>
<path d="M0 0 C-0.66 1.65 -1.32 3.3 -2 5 C-2.33 4.01 -2.66 3.02 -3 2 C-5.31 2 -7.62 2 -10 2 C-10 1.67 -10 1.34 -10 1 C-6.56484998 0.37542727 -3.50935186 0 0 0 Z " fill="#507DB5" transform="translate(189,415)"/>
<path d="M0 0 C0.66 0.33 1.32 0.66 2 1 C-0.31 3.31 -2.62 5.62 -5 8 C-5.66 7.67 -6.32 7.34 -7 7 C-4.66666667 4.66666667 -2.33333333 2.33333333 0 0 Z " fill="#E4703E" transform="translate(444,365)"/>
<path d="M0 0 C0.625 1.8125 0.625 1.8125 1 4 C0.01 5.485 0.01 5.485 -1 7 C-2.32 6.67 -3.64 6.34 -5 6 C-3.35 4.02 -1.7 2.04 0 0 Z " fill="#EEA81C" transform="translate(206,299)"/>
<path d="M0 0 C1.485 0.99 1.485 0.99 3 2 C3.29296875 4.3828125 3.29296875 4.3828125 3.1875 7.125 C3.16042969 8.03507812 3.13335937 8.94515625 3.10546875 9.8828125 C3.07066406 10.58148438 3.03585938 11.28015625 3 12 C2.67 12 2.34 12 2 12 C1.34 8.04 0.68 4.08 0 0 Z " fill="#CB2A28" transform="translate(195,272)"/>
<path d="M0 0 C-0.53625 0.2475 -1.0725 0.495 -1.625 0.75 C-4.56424252 2.29696975 -7.25754408 4.13014369 -10 6 C-9.75 4.125 -9.75 4.125 -9 2 C-6.04454879 -0.11103658 -3.56144099 -0.19785783 0 0 Z " fill="#D32927" transform="translate(192,270)"/>
<path d="M0 0 C0.33 0 0.66 0 1 0 C1.33 2.64 1.66 5.28 2 8 C1.01 8 0.02 8 -1 8 C-1.04241723 5.66705225 -1.04092937 3.33297433 -1 1 C-0.67 0.67 -0.34 0.34 0 0 Z " fill="#184789" transform="translate(102,430)"/>
<path d="M0 0 C0 0.66 0 1.32 0 2 C-2.31 2.33 -4.62 2.66 -7 3 C-6.67 2.01 -6.34 1.02 -6 0 C-3.50907189 -1.24546405 -2.58919267 -0.7767578 0 0 Z " fill="#F4F2ED" transform="translate(204,412)"/>
<path d="M0 0 C0.33 0 0.66 0 1 0 C1.2506019 1.41303238 1.47461921 2.83079474 1.6875 4.25 C1.81511719 5.03890625 1.94273437 5.8278125 2.07421875 6.640625 C2 9 2 9 -1 13 C-0.67 8.71 -0.34 4.42 0 0 Z " fill="#C4D4E3" transform="translate(641,364)"/>
<path d="M0 0 C0 0.33 0 0.66 0 1 C-1.0725 1.28875 -2.145 1.5775 -3.25 1.875 C-6.09400364 2.72820109 -8.43508983 3.5636503 -11 5 C-9.07089686 -0.78730941 -5.38986894 -0.20339128 0 0 Z " fill="#E67D4E" transform="translate(481,342)"/>
</svg>
